<svg width="55" height="52" viewBox="0 0 55 52" fill="none" xmlns="http://www.w3.org/2000/svg">
<path d="M3.97998 25V48.7467" stroke="#F0F0F0"/>
<path d="M16.14 24.9991V48.7474" stroke="#F0F0F0"/>
<path d="M28.8733 24.9993V48.7473" stroke="#F0F0F0"/>
<path d="M41.0333 24.9999V48.7467" stroke="#F0F0F0"/>
<path d="M53.7667 24.9977V48.7489" stroke="#F0F0F0"/>
<path d="M3.95998 48.7466H53.5333" stroke="#F0F0F0"/>
<path d="M3.95998 40.8267H53.5333" stroke="#F0F0F0"/>
<path d="M3.95998 33.0533H53.5333" stroke="#F0F0F0"/>
<path d="M3.95998 25.28H53.5333" stroke="#F0F0F0"/>
<path d="M3.95998 16.3333C3.95998 16.3333 10.12 37.3066 16.28 37.3066C22.44 37.3066 22.44 43.6133 28.7466 43.6133C34.9066 43.6133 34.9066 41.7066 41.0666 41.7066C47.2266 41.7066 53.5333 21.0266 53.5333 21.0266" stroke="#A6CEE3" stroke-width="2"/>
<circle cx="3.95999" cy="16.3333" r="0.586667" fill="#A6CEE3"/>
<circle cx="16.2799" cy="37.3066" r="0.586667" fill="#A6CEE3"/>
<circle cx="28.7466" cy="43.6133" r="0.586667" fill="#A6CEE3"/>
<circle cx="41.0667" cy="41.7067" r="0.586667" fill="#A6CEE3"/>
<circle cx="53.5333" cy="21.0267" r="0.586667" fill="#A6CEE3"/>
<path d="M3.95998 26.0133C3.95998 26.0133 10.12 30.7066 16.28 30.7066C22.44 30.7066 22.44 28.8 28.7466 28.8C34.9066 28.8 34.9066 43.1733 41.0666 43.1733C47.2266 43.1733 53.5333 27.6266 53.5333 27.6266" stroke="#1F78B4" stroke-width="2"/>
<circle cx="3.95999" cy="26.0134" r="0.586667" fill="#1F78B4"/>
<circle cx="16.2799" cy="30.7067" r="0.586667" fill="#1F78B4"/>
<circle cx="28.7466" cy="28.8" r="0.586667" fill="#1F78B4"/>
<circle cx="41.0667" cy="43.1733" r="0.586667" fill="#1F78B4"/>
<circle cx="53.5333" cy="27.6266" r="0.586667" fill="#1F78B4"/>
<path d="M17.8884 8.894V7.906L22.5944 1.77H23.8684V7.867H25.2204V8.894H23.8684V11H22.6724V8.894H17.8884ZM22.7504 3.213L19.1364 7.867H22.7504V3.213ZM27.3669 9.609V11H25.9369V9.609H27.3669ZM33.6836 4.279C33.6142 3.733 33.4279 3.31267 33.1246 3.018C32.8299 2.71467 32.4182 2.563 31.8896 2.563C31.1529 2.563 30.5939 2.849 30.2126 3.421C29.8399 3.993 29.6536 4.89867 29.6536 6.138L29.6666 6.619C29.7966 6.099 30.0956 5.68733 30.5636 5.384C31.0316 5.072 31.5819 4.916 32.2146 4.916C33.1246 4.916 33.8352 5.189 34.3466 5.735C34.8666 6.281 35.1266 7.04367 35.1266 8.023C35.1266 8.595 35.0139 9.115 34.7886 9.583C34.5632 10.0423 34.2166 10.4107 33.7486 10.688C33.2892 10.9567 32.7172 11.091 32.0326 11.091C30.7239 11.091 29.8226 10.6793 29.3286 9.856C28.8432 9.03267 28.6006 7.91467 28.6006 6.502C28.6006 4.87267 28.8606 3.65067 29.3806 2.836C29.9092 2.01267 30.7672 1.601 31.9546 1.601C32.8299 1.601 33.5016 1.848 33.9696 2.342C34.4462 2.836 34.7279 3.48167 34.8146 4.279H33.6836ZM29.7966 7.828C29.7966 8.46067 29.9786 8.99367 30.3426 9.427C30.7152 9.85167 31.2699 10.064 32.0066 10.064C32.6132 10.064 33.0986 9.88633 33.4626 9.531C33.8266 9.167 34.0086 8.66 34.0086 8.01C34.0086 7.308 33.8266 6.775 33.4626 6.411C33.0986 6.03833 32.5959 5.852 31.9546 5.852C31.5906 5.852 31.2439 5.92567 30.9146 6.073C30.5852 6.22033 30.3166 6.44567 30.1086 6.749C29.9006 7.04367 29.7966 7.40333 29.7966 7.828ZM36.3888 10.09C37.8621 9.102 39.0408 8.12267 39.9248 7.152C40.8088 6.17267 41.2508 5.26267 41.2508 4.422C41.2508 3.902 41.1164 3.486 40.8478 3.174C40.5878 2.85333 40.1631 2.693 39.5738 2.693C38.9671 2.693 38.5078 2.888 38.1958 3.278C37.8838 3.65933 37.7104 4.188 37.6758 4.864H36.5058C36.5664 3.84133 36.8828 3.057 37.4548 2.511C38.0268 1.95633 38.7634 1.679 39.6648 1.679C40.5228 1.679 41.2031 1.90867 41.7058 2.368C42.2084 2.82733 42.4598 3.47733 42.4598 4.318C42.4598 5.01133 42.2344 5.71767 41.7838 6.437C41.3418 7.14767 40.7828 7.81067 40.1068 8.426C39.4394 9.03267 38.7504 9.54833 38.0398 9.973H42.6938V10.948H36.3888V10.09ZM48.7577 1.705C49.3037 1.705 49.7543 1.88267 50.1097 2.238C50.4737 2.58467 50.6557 3.04833 50.6557 3.629C50.6557 4.20967 50.478 4.67333 50.1227 5.02C49.7673 5.36667 49.3123 5.54 48.7577 5.54C48.203 5.54 47.748 5.36667 47.3927 5.02C47.0373 4.67333 46.8597 4.20967 46.8597 3.629C46.8597 3.04833 47.0373 2.58467 47.3927 2.238C47.748 1.88267 48.203 1.705 48.7577 1.705ZM53.9317 1.822L48.6667 11H47.4967L52.7617 1.822H53.9317ZM47.6917 3.629C47.6917 3.97567 47.787 4.25733 47.9777 4.474C48.177 4.69067 48.4327 4.799 48.7447 4.799C49.0653 4.799 49.3253 4.69067 49.5247 4.474C49.724 4.25733 49.8237 3.97567 49.8237 3.629C49.8237 3.28233 49.724 3.00067 49.5247 2.784C49.3253 2.56733 49.0653 2.459 48.7447 2.459C48.4327 2.459 48.177 2.56733 47.9777 2.784C47.787 3.00067 47.6917 3.28233 47.6917 3.629ZM52.6837 7.282C53.2383 7.282 53.689 7.45533 54.0357 7.802C54.391 8.14867 54.5687 8.61233 54.5687 9.193C54.5687 9.77367 54.391 10.2417 54.0357 10.597C53.689 10.9437 53.2383 11.117 52.6837 11.117C52.1377 11.117 51.6827 10.9437 51.3187 10.597C50.9633 10.2417 50.7857 9.77367 50.7857 9.193C50.7857 8.61233 50.9633 8.14867 51.3187 7.802C51.674 7.45533 52.129 7.282 52.6837 7.282ZM51.6177 9.193C51.6177 9.53967 51.713 9.82133 51.9037 10.038C52.103 10.2547 52.363 10.363 52.6837 10.363C52.9957 10.363 53.247 10.2547 53.4377 10.038C53.637 9.82133 53.7367 9.53967 53.7367 9.193C53.7367 8.84633 53.637 8.56467 53.4377 8.348C53.247 8.13133 52.9957 8.023 52.6837 8.023C52.363 8.023 52.103 8.13133 51.9037 8.348C51.713 8.56467 51.6177 8.84633 51.6177 9.193Z" fill="black"/>
<path fill-rule="evenodd" clip-rule="evenodd" d="M10.7655 8.5155C10.7307 8.55042 10.6893 8.57813 10.6437 8.59704C10.5982 8.61594 10.5493 8.62567 10.5 8.62567C10.4507 8.62567 10.4018 8.61594 10.3563 8.59704C10.3107 8.57813 10.2694 8.55042 10.2345 8.5155L6.00002 4.28025L1.76552 8.5155C1.73065 8.55037 1.68926 8.57802 1.64371 8.59689C1.59815 8.61576 1.54933 8.62548 1.50002 8.62548C1.45071 8.62548 1.40189 8.61576 1.35633 8.59689C1.31078 8.57802 1.26938 8.55037 1.23452 8.5155C1.19965 8.48064 1.172 8.43924 1.15313 8.39369C1.13426 8.34813 1.12454 8.29931 1.12454 8.25C1.12454 8.20069 1.13426 8.15187 1.15313 8.10631C1.172 8.06076 1.19965 8.01937 1.23452 7.9845L5.73452 3.4845C5.76935 3.44958 5.81073 3.42187 5.85629 3.40297C5.90185 3.38406 5.95069 3.37433 6.00002 3.37433C6.04934 3.37433 6.09818 3.38406 6.14374 3.40297C6.1893 3.42187 6.23068 3.44958 6.26552 3.4845L10.7655 7.9845C10.8004 8.01934 10.8281 8.06072 10.8471 8.10628C10.866 8.15183 10.8757 8.20068 10.8757 8.25C10.8757 8.29933 10.866 8.34817 10.8471 8.39373C10.8281 8.43929 10.8004 8.48067 10.7655 8.5155Z" fill="#333333"/>
</svg>
